<?xml version="1.0" encoding="utf-8"?>
<!-- Generator: Adobe Illustrator 26.0.0, SVG Export Plug-In . SVG Version: 6.00 Build 0)  -->
<svg version="1.1" id="Capa_1" xmlns:xodm="http://www.corel.com/coreldraw/odm/2003"
	 xmlns="http://www.w3.org/2000/svg" xmlns:xlink="http://www.w3.org/1999/xlink" x="0px" y="0px" viewBox="0 0 179.6 34.2"
	 style="enable-background:new 0 0 179.6 34.2;" xml:space="preserve">
<style type="text/css">
	.st0{fill:#5237C7;}
</style>
<g>
	<g>
		<path d="M5.1,28.2V1.6h0.8v25.9h15.8v0.7H5.1z"/>
		<path d="M27.9,27.5h16.9v0.7H27.1V1.6h17.1v0.7H27.9V27.5z M27.7,14.3h14.9V15H27.7V14.3z"/>
		<path d="M47.8,28.2L60.1,1.6h0.8l12.3,26.6h-0.9l-12-26h0.4l-12,26H47.8z M51.8,20.2l0.4-0.7h16.5l0.4,0.7H51.8z"/>
		<path d="M78.6,28.2V1.6h9c2.2,0,4,0.3,5.6,1c1.6,0.7,2.8,1.7,3.6,3s1.3,2.9,1.3,4.7c0,1.8-0.4,3.4-1.3,4.7c-0.8,1.3-2,2.3-3.6,3
			c-1.6,0.7-3.4,1-5.6,1H79l0.3-0.3v9.5H78.6z M79.4,18.7L79,18.4h8.7c3.1,0,5.5-0.7,7.1-2.1c1.6-1.4,2.5-3.4,2.5-5.9
			c0-2.6-0.8-4.5-2.5-5.9c-1.6-1.4-4-2.1-7.1-2.1H79L79.4,2V18.7z M97.5,28.2l-7-9.7h1l7,9.7H97.5z"/>
		<path d="M105.8,28.2V1.6h0.6l19.9,25.7H126V1.6h0.8v26.6h-0.6L106.2,2.5h0.4v25.7H105.8z"/>
		<path class="st0" d="M133.1,25.9c0-1.6,1.5-3,3.2-3c1.7,0,3.2,1.4,3.2,3c0,1.7-1.5,3-3.2,3C134.5,28.9,133.1,27.5,133.1,25.9z"/>
		<path class="st0" d="M143,3h6.7v25.2H143V3z"/>
		<path class="st0" d="M171.3,9.3h-6v18.9h-6.7V9.3h-6V3h18.8V9.3z"/>
	</g>
</g>
<rect x="179.7" y="-28.8" style="fill:none;" width="0.7" height="2.4"/>
</svg>
